<mxfile host="65bd71144e">
    <diagram name="辅助功能定位示意图" id="auxiliary-positioning">
        <mxGraphModel dx="1046" dy="685" grid="1" gridSize="10" guides="1" tooltips="1" connect="1" arrows="1" fold="1" page="1" pageScale="1" pageWidth="1000" pageHeight="700" math="0" shadow="0">
            <root>
                <mxCell id="0"/>
                <mxCell id="1" parent="0"/>
                <mxCell id="title" value="多模态大模型辅助功能定位" style="text;html=1;strokeColor=none;fillColor=none;align=center;verticalAlign=middle;whiteSpace=wrap;rounded=0;fontSize=18;fontStyle=1;" parent="1" vertex="1">
                    <mxGeometry x="350" y="20" width="300" height="40" as="geometry"/>
                </mxCell>
                <mxCell id="core-system" value="核心识别系统" style="rounded=1;whiteSpace=wrap;html=1;fillColor=#d5e8d4;strokeColor=#82b366;fontSize=16;fontStyle=1;verticalAlign=top;" parent="1" vertex="1">
                    <mxGeometry x="100" y="100" width="400" height="200" as="geometry"/>
                </mxCell>
                <mxCell id="edge-ai-core" value="边缘AI识别" style="rounded=1;whiteSpace=wrap;html=1;fillColor=#fff2cc;strokeColor=#d6b656;fontSize=14;fontStyle=1;" parent="1" vertex="1">
                    <mxGeometry x="130" y="140" width="120" height="50" as="geometry"/>
                </mxCell>
                <mxCell id="algorithms" value="PP-YOLOE+&#10;OCRNet&#10;HRNet&#10;PP-OCR" style="rounded=1;whiteSpace=wrap;html=1;fillColor=#ffe6cc;strokeColor=#d79b00;" parent="1" vertex="1">
                    <mxGeometry x="270" y="140" width="100" height="80" as="geometry"/>
                </mxCell>
                <mxCell id="system-status" value="主要功能模块&#10;负责核心识别任务" style="text;html=1;strokeColor=#82b366;fillColor=#d5e8d4;align=center;verticalAlign=middle;whiteSpace=wrap;rounded=1;fontSize=12;fontStyle=1;" parent="1" vertex="1">
                    <mxGeometry x="130" y="250" width="200" height="40" as="geometry"/>
                </mxCell>
                <mxCell id="auxiliary-system" value="辅助校验系统" style="rounded=1;whiteSpace=wrap;html=1;fillColor=#dae8fc;strokeColor=#6c8ebf;fontSize=16;fontStyle=1;verticalAlign=top;" parent="1" vertex="1">
                    <mxGeometry x="550" y="100" width="400" height="200" as="geometry"/>
                </mxCell>
                <mxCell id="multimodal-llm" value="多模态大模型" style="rounded=1;whiteSpace=wrap;html=1;fillColor=#f8cecc;strokeColor=#b85450;fontSize=14;fontStyle=1;" parent="1" vertex="1">
                    <mxGeometry x="600" y="140" width="120" height="50" as="geometry"/>
                </mxCell>
                <mxCell id="vllm-framework" value="vLLM框架&#10;智能分析&#10;异常检测&#10;决策建议" style="rounded=1;whiteSpace=wrap;html=1;fillColor=#ffe6cc;strokeColor=#d79b00;" parent="1" vertex="1">
                    <mxGeometry x="760" y="140" width="100" height="80" as="geometry"/>
                </mxCell>
                <mxCell id="auxiliary-status" value="辅助功能模块&#10;提供智能分析和建议" style="text;html=1;strokeColor=#6c8ebf;fillColor=#dae8fc;align=center;verticalAlign=middle;whiteSpace=wrap;rounded=1;fontSize=12;fontStyle=1;" parent="1" vertex="1">
                    <mxGeometry x="580" y="250" width="200" height="40" as="geometry"/>
                </mxCell>
                <mxCell id="collaboration-arrow" style="edgeStyle=orthogonalEdgeStyle;rounded=0;orthogonalLoop=1;jettySize=auto;html=1;strokeWidth=3;fillColor=#fff2cc;strokeColor=#d6b656;dashed=1;" parent="1" source="core-system" target="auxiliary-system" edge="1">
                    <mxGeometry relative="1" as="geometry">
                        <mxPoint x="500" y="200" as="sourcePoint"/>
                        <mxPoint x="550" y="200" as="targetPoint"/>
                    </mxGeometry>
                </mxCell>
                <mxCell id="collaboration-label" value="数据传递&#10;智能校验" style="text;html=1;strokeColor=#d6b656;fillColor=#fff2cc;align=center;verticalAlign=middle;whiteSpace=wrap;rounded=1;fontSize=12;fontStyle=1;" parent="1" vertex="1">
                    <mxGeometry x="485" y="140" width="80" height="40" as="geometry"/>
                </mxCell>
                <mxCell id="working-modes" value="系统工作模式" style="rounded=1;whiteSpace=wrap;html=1;fillColor=#f5f5f5;strokeColor=#666666;fontSize=16;fontStyle=1;verticalAlign=top;" parent="1" vertex="1">
                    <mxGeometry x="100" y="350" width="850" height="180" as="geometry"/>
                </mxCell>
                <mxCell id="standalone-mode" value="独立工作模式" style="rounded=1;whiteSpace=wrap;html=1;fillColor=#d5e8d4;strokeColor=#82b366;fontSize=14;fontStyle=1;" parent="1" vertex="1">
                    <mxGeometry x="130" y="390" width="150" height="30" as="geometry"/>
                </mxCell>
                <mxCell id="standalone-desc" value="• 边缘AI独立完成识别&#10;• 满足核心性能指标&#10;• 即使辅助模块不可用&#10;  系统仍正常工作" style="rounded=1;whiteSpace=wrap;html=1;fillColor=#e1d5e7;strokeColor=#9673a6;align=left;" parent="1" vertex="1">
                    <mxGeometry x="130" y="430" width="200" height="70" as="geometry"/>
                </mxCell>
                <mxCell id="collaborative-mode" value="协同工作模式" style="rounded=1;whiteSpace=wrap;html=1;fillColor=#dae8fc;strokeColor=#6c8ebf;fontSize=14;fontStyle=1;" parent="1" vertex="1">
                    <mxGeometry x="380" y="390" width="150" height="30" as="geometry"/>
                </mxCell>
                <mxCell id="collaborative-desc" value="• 边缘AI + 多模态校验&lt;br&gt;• 提供增值分析服务&lt;br&gt;• 异常检测和智能建议" style="rounded=1;whiteSpace=wrap;html=1;fillColor=#e1d5e7;strokeColor=#9673a6;align=left;" parent="1" vertex="1">
                    <mxGeometry x="380" y="430" width="200" height="70" as="geometry"/>
                </mxCell>
                <mxCell id="smart-trigger-mode" value="智能触发模式" style="rounded=1;whiteSpace=wrap;html=1;fillColor=#fff2cc;strokeColor=#d6b656;fontSize=14;fontStyle=1;" parent="1" vertex="1">
                    <mxGeometry x="630" y="390" width="150" height="30" as="geometry"/>
                </mxCell>
                <mxCell id="smart-trigger-desc" value="• 置信度低时自动触发&lt;br&gt;• 异常数据智能检测" style="rounded=1;whiteSpace=wrap;html=1;fillColor=#e1d5e7;strokeColor=#9673a6;align=left;" parent="1" vertex="1">
                    <mxGeometry x="630" y="430" width="200" height="70" as="geometry"/>
                </mxCell>
                <mxCell id="positioning-summary" value="核心定位总结" style="rounded=1;whiteSpace=wrap;html=1;fillColor=#f5f5f5;strokeColor=#666666;fontSize=16;fontStyle=1;verticalAlign=top;" parent="1" vertex="1">
                    <mxGeometry x="100" y="570" width="850" height="120" as="geometry"/>
                </mxCell>
                <mxCell id="key-features" value="辅助角色定位" style="rounded=1;whiteSpace=wrap;html=1;fillColor=#e1d5e7;strokeColor=#9673a6;fontSize=14;fontStyle=1;" parent="1" vertex="1">
                    <mxGeometry x="130" y="610" width="120" height="30" as="geometry"/>
                </mxCell>
                <mxCell id="key-points" value="• 不承担主要识别任务，核心精度指标由边缘AI保证&#10;• 作为智能助手提供二次校验和异常检测服务&#10;• 增值功能：提升整体可靠性和用户体验&#10;• 可选服务：系统在没有此功能时仍能正常工作" style="rounded=1;whiteSpace=wrap;html=1;fillColor=#f5f5f5;strokeColor=#666666;align=left;" parent="1" vertex="1">
                    <mxGeometry x="280" y="610" width="500" height="70" as="geometry"/>
                </mxCell>
                <mxCell id="value-desc" value="智能化升级" style="text;html=1;strokeColor=none;fillColor=none;align=center;verticalAlign=middle;whiteSpace=wrap;rounded=0;fontSize=12;fontStyle=1;" parent="1" vertex="1">
                    <mxGeometry x="820" y="635" width="80" height="20" as="geometry"/>
                </mxCell>
                <mxCell id="4" value="• 不承担主要识别任务，核心精度指标由边缘AI保证&#10;• 作为智能助手提供二次校验和异常检测服务&#10;• 增值功能：提升整体可靠性和用户体验&#10;• 可选服务：系统在没有此功能时仍能正常工作" style="rounded=1;whiteSpace=wrap;html=1;fillColor=#f5f5f5;strokeColor=#666666;align=left;" parent="1" vertex="1">
                    <mxGeometry x="280" y="610" width="500" height="70" as="geometry"/>
                </mxCell>
            </root>
        </mxGraphModel>
    </diagram>
</mxfile>